<svg xmlns="http://www.w3.org/2000/svg" viewBox="0 0 1024 1024"><path d="M812 502.4c0 5.2-2 9.9-6.1 13.8L525.8 796.3c-4 4-8.6 6.1-13.8 6.1s-9.9-2-13.8-6.1L218.1 516.2c-4-4-6.1-8.6-6.1-13.8 0-5.2 2-9.9 6.1-13.8l30.1-30.1c4-4 8.6-6.1 13.8-6.1s9.9 2 13.8 6.1L512 694.8l236.3-236.3c4-4 8.6-6.1 13.8-6.1s9.9 2 13.8 6.1l30.1 30.1c4 3.9 6 8.6 6 13.8zm0-230.9c0 5.2-2 9.9-6.1 13.8L525.8 565.5c-4 4-8.6 6.1-13.8 6.1s-9.9-2-13.8-6.1L218.1 285.4c-4-4-6.1-8.6-6.1-13.8 0-5.2 2-9.9 6.1-13.8l30.1-30.1c4-4 8.6-6.1 13.8-6.1s9.9 2 13.8 6.1L512 463.9l236.3-236.3c4-4 8.6-6.1 13.8-6.1s9.9 2 13.8 6.1l30.1 30.1c4 4 6 8.6 6 13.8z"/></svg>