<svg xmlns="http://www.w3.org/2000/svg" viewBox="0 0 1024 1024"><path d="M571.5 512c0 5.2-2 9.9-6.1 13.8l-280 280.1c-4 4-8.6 6.1-13.8 6.1-5.2 0-9.9-2-13.8-6.1l-30.1-30.1c-4-4-6.1-8.6-6.1-13.8s2-9.9 6.1-13.8L463.9 512 227.7 275.8c-4-4-6.1-8.6-6.1-13.8s2-9.9 6.1-13.8l30.1-30.1c4-4 8.6-6.1 13.8-6.1 5.2 0 9.9 2 13.8 6.1l280.1 280.1c4.1 3.9 6 8.6 6 13.8zm230.9 0c0 5.2-2 9.9-6.1 13.8L516.2 805.9c-4 4-8.6 6.1-13.8 6.1-5.2 0-9.9-2-13.8-6.1l-30.1-30.1c-4-4-6.1-8.6-6.1-13.8s2-9.9 6.1-13.8L694.8 512 458.5 275.8c-4-4-6.1-8.6-6.1-13.8s2-9.9 6.1-13.8l30.1-30.1c4-4 8.6-6.1 13.8-6.1 5.2 0 9.9 2 13.8 6.1l280.1 280.1c4.1 3.9 6.1 8.6 6.1 13.8z"/></svg>