<svg xmlns="http://www.w3.org/2000/svg" viewBox="0 0 1024 1024"><path d="M571.5 762.1c0 5.2-2 9.9-6.1 13.8L535.3 806c-4 4-8.6 6.1-13.8 6.1-5.2 0-9.9-2-13.8-6.1l-280-280.2c-4-4-6.1-8.6-6.1-13.8s2-9.9 6.1-13.8l280.1-280.1c4-4 8.6-6.1 13.8-6.1 5.2 0 9.9 2 13.8 6.1l30.1 30.1c4 4 6.1 8.6 6.1 13.8s-2 9.9-6.1 13.8L329.2 512l236.2 236.3c4.2 4 6.1 8.6 6.1 13.8zm230.9 0c0 5.2-2 9.9-6.1 13.8L766.2 806c-4 4-8.6 6.1-13.8 6.1s-9.9-2-13.8-6.1L458.5 525.8c-4-4-6.1-8.6-6.1-13.8s2-9.9 6.1-13.8l280.1-280.1c4-4 8.6-6.1 13.8-6.1s9.9 2 13.8 6.1l30.1 30.1c4 4 6.1 8.6 6.1 13.8s-2 9.9-6.1 13.8L560.1 512l236.3 236.3c4 4 6 8.6 6 13.8z"/></svg>