<svg xmlns="http://www.w3.org/2000/svg" viewBox="0 0 1024 1024"><path d="M812 752.5c0 5.2-2 9.9-6.1 13.8l-30.1 30.1c-4 4-8.6 6.1-13.8 6.1s-9.9-2-13.8-6.1L512 560.1 275.8 796.3c-4 4-8.6 6.1-13.8 6.1s-9.9-2-13.8-6.1l-30.1-30.1c-4-4-6.1-8.6-6.1-13.8s2-9.9 6.1-13.8l280.1-280.1c4-4 8.6-6.1 13.8-6.1 5.2 0 9.9 2 13.8 6.1l280.1 280.1c4.1 4.1 6.1 8.7 6.1 13.9zm0-230.9c0 5.2-2 9.9-6.1 13.8l-30.1 30.1c-4 4-8.6 6.1-13.8 6.1s-9.9-2-13.8-6.1L512 329.2 275.8 565.5c-4 4-8.6 6.1-13.8 6.1s-9.9-2-13.8-6.1l-30.1-30.1c-4-4-6.1-8.6-6.1-13.8 0-5.2 2-9.9 6.1-13.8l280.1-280.1c4-4 8.6-6.1 13.8-6.1 5.2 0 9.9 2 13.8 6.1l280.1 280.1c4.1 4 6.1 8.6 6.1 13.8z"/></svg>