<svg xmlns="http://www.w3.org/2000/svg" viewBox="0 0 1024 1024"><path d="M819 262.4H205c-17 0-30.7-17.2-30.7-38.4s13.8-38.4 30.7-38.4h614c17 0 30.7 17.2 30.7 38.4s-13.8 38.4-30.7 38.4M783.2 896c0 35.4-31.8 71.8-64.4 71.8H296.1c-32.6 0-54.8-36.5-54.8-71.8V320h541.8v576h.1zM416.3 84.6c0-17.7 20.4-34.1 36.7-34.1h118.1c16.3 0 36.5 16.4 36.5 34.1V128H416.3c-.1 0 0-43.4 0-43.4zM836.9 128H659.7V64c0-35.4-26.5-64-59.1-64H423.4c-32.6 0-59.1 28.7-59.1 64v64H187.1c-32.6 0-59.1 28.7-59.1 64v64c0 35.3 26.4 64 59.1 64v576c0 70.7 52.9 128 118.2 128h413.5c65.3 0 118.2-57.3 118.2-128V320c32.6 0 59.1-28.7 59.1-64v-64c-.1-35.3-26.6-64-59.2-64M512 896c11.8 0 21.3-14.3 21.3-32V437.3c0-17.7-9.6-32-21.3-32-11.8 0-21.3 14.3-21.3 32V864c0 17.7 9.5 32 21.3 32m-147.7 0c11.8 0 21.3-14.3 21.3-32V437.3c0-17.7-9.6-32-21.3-32s-21.3 14.3-21.3 32V864c0 17.7 9.5 32 21.3 32m295.4 0c11.8 0 21.3-14.3 21.3-32V437.3c0-17.7-9.6-32-21.3-32s-21.3 14.3-21.3 32V864c0 17.7 9.5 32 21.3 32"/></svg>