<svg xmlns="http://www.w3.org/2000/svg" viewBox="0 0 1024 1024"><path d="M296.8 479.8V251.3c0-5.9 4.8-10.7 10.7-10.7h58.9c5.9 0 10.7 4.8 10.7 10.7v228.6h73.8c6.8 0 10.7 7.8 6.4 13.2L343.4 637.4c-2.8 3.6-7.9 4.2-11.4 1.4-.5-.4-1-.9-1.4-1.4l-114-144.3c-2.8-3.5-2.2-8.6 1.3-11.4 1.5-1.2 3.3-1.8 5.2-1.8h73.7zm572.3-35.2c-23.1-8.2-42.1-13.7-66.4-16.4V78.4H78.4v867.1h426.4c20.7 27.6 45.7 46.7 74.1 66.4H47.7C28 1012 12 996 12 976.3V47.7C12 28 28 12 47.7 12h785.7c19.7 0 35.7 16 35.7 35.7v396.9zm136.2 367.6c6.1 5.2 8.3 13.6 5.6 20.9l-.5 1.6c-10.9 30.1-26.9 57.9-47.6 82.4l-1.1 1.3c-5.1 6.1-13.5 8.4-21 5.7l-48.6-17.3c-17.8 14.7-38 26.3-59.6 34.4L823 992c-1.4 7.8-7.6 13.9-15.4 15.4l-1.6.4c-31.4 5.7-63.6 5.7-95.1 0l-1.6-.4c-7.8-1.4-14-7.5-15.4-15.4l-9.4-51.1c-21.4-8.1-41.4-19.6-59.2-34.3l-49 17.4c-7.5 2.6-15.8.3-20.9-5.7l-1.1-1.2c-20.7-24.4-36.9-52.3-47.7-82.4l-.5-1.6c-2.7-7.5-.5-15.8 5.6-21l39.6-33.9c-3.7-22.6-3.7-45.7 0-68.3L511.7 676c-6-5.2-8.3-13.6-5.6-21.1l.5-1.5c10.9-30.1 26.9-57.9 47.7-82.5l1.1-1.2c5.1-6.1 13.4-8.3 20.9-5.7l49 17.4c17.9-14.6 37.7-26.2 59.2-34.3l9.4-51.1c1.4-7.8 7.6-13.9 15.4-15.4l1.6-.3c31.4-5.6 63.6-5.6 95 0l1.6.3c7.9 1.4 14 7.6 15.4 15.4l9.4 50.9c21.6 8.1 41.6 19.7 59.6 34.4l48.6-17.3c7.5-2.7 15.9-.4 21.1 5.7l1.1 1.2c20.7 24.5 36.8 52.3 47.6 82.5l.5 1.5c2.7 7.5.5 15.9-5.6 21.1l-39.1 33.5c3.7 22.9 3.7 46.2 0 69.1l39.2 33.6zM916 718.3l-3.7-22.4 42.6-35.7c-6.5-14.6-14.6-28.5-24.3-41.3l-52.9 18.4-17.9-14.5c-13.6-10.9-28.9-19.6-45.3-25.6l-21.7-8-10.2-54.4c-16.1-1.8-32.3-1.8-48.4 0L724 589.2l-21.6 8.1c-16.3 6-31.4 14.7-44.9 25.6l-17.9 14.5-53.3-18.6c-9.7 12.9-17.9 26.6-24.3 41.2l43.1 36.1-3.7 22.4c-2.9 16.9-2.9 34.1 0 51l3.7 22.4-43.1 36.2c6.5 14.6 14.6 28.4 24.3 41.3l53.3-18.6 17.9 14.5c13.6 10.9 28.6 19.6 44.9 25.6l21.5 8.1 10.2 54.4c16.1 1.8 32.4 1.8 48.5 0l10.2-54.3 21.7-8.1c16.4-6 31.6-14.7 45.2-25.7l17.9-14.4 52.9 18.4c9.7-12.9 17.9-26.6 24.3-41.2l-42.6-35.8 3.8-22.5c2.9-17 2.9-34.4 0-51.5zM758.4 637c59.2 0 107.1 48 107.1 107.1 0 59.2-48 107.1-107.1 107.1s-107.1-48-107.1-107.1c0-59.2 47.9-107.1 107.1-107.1zm40.4 147.5c22.3-22.1 22.5-58.2.3-80.5l-.3-.3a56.399 56.399 0 00-40.4-16.7c-31.4-.3-57.2 24.9-57.5 56.4-.2 15.5 6 30.4 17.1 41.2 22.1 22.3 58.2 22.5 80.5.3.1-.1.2-.2.3-.4z"/></svg>