<svg xmlns="http://www.w3.org/2000/svg" viewBox="0 0 1024 1024"><path d="M993.9 963.4H30.1C13.5 963.4 0 977 0 993.7c0 16.7 13.5 30.3 30.1 30.3h963.8c16.6 0 30.1-13.6 30.1-30.3 0-16.7-13.5-30.3-30.1-30.3zM98.5 864.3c3.6 0 7.2-.6 10.5-1.8l233.4-88.8c8-3.1 15.3-7.8 21.4-13.9l545.7-549.2c23.5-23.7 23.6-62 0-85.7l-106.3-107c-23.5-23.7-61.6-23.7-85.2 0L172.3 566.7c-6.1 6.1-10.8 13.4-13.9 21.5L70.5 823.1c-5.8 15.7 2.1 33.1 17.7 39 3.4 1.3 7 1.9 10.6 1.9l-.3.3zm555.7-697.1l106.6 107.3-384.9 387.3-106.6-107.3 384.9-387.3zM760.8 59.9l106.6 107.3-63.8 64.3-107-106.7 64.2-64.9zM215 609.7l14.5-14.5 106.6 107.3-14.4 14.5-171.1 64.6L215 609.7z"/></svg>