<svg xmlns="http://www.w3.org/2000/svg" viewBox="0 0 1024 1024"><path d="M865 128H156.7C70.3 128 0 194.4 0 276v472c0 81.6 70.3 148 156.7 148h710.6c86.4 0 156.7-66.4 156.7-148V275.7c-2.5-81.4-73.9-147.7-159-147.7zM519.3 552.1c-4.9 4.6-11.7 4.9-17.2-.2L118.2 213c10.5-5.8 24.2-10.5 38.5-10.5H865c14.3 0 27 3.4 38.7 10.2L519.3 552.1zm423.5-271.5v469.6c0 40.6-34.9 73.5-77.8 73.5H156.7c-42.9 0-77.9-33-77.9-73.5V280.7l367.7 324.1c16.8 15.8 40.8 25.3 64.3 25.3 25.9 0 46.9-8.7 61.6-25l370.4-324.5z"/></svg>