<svg xmlns="http://www.w3.org/2000/svg" viewBox="0 0 64 64"><path d="M62.2 8.7c-.3-.7-.9-1.3-1.7-1.5L27.2.1c-.9-.2-1.9.2-2.5 1-.6.8-.6 1.8 0 2.7l13.7 22-2.4 4.5c-1.7-1.2-5.5-2.5-10.4-3.2-3-.4-6.3-.9-7.6-1.6l-4.8-2c-.6-.3-1.3-.3-1.9-.1s-1.1.7-1.4 1.4L1.8 46.2c-.5 1.2.1 2.5 1.2 3l27.9 14.1h.1c.8.4 1.7.6 2.6.6 2 0 3.2-1 4.4-2.8V61c1.5-1.9 5.1-7.9 8.3-12.8 1.4-1.8 3.5-4.3 3.1-6.7 0-.1 0-.2-.1-.3-.6-2-1.9-3.7-3.7-4.6l-.9-.4L62 10.9c.4-.6.5-1.5.2-2.2zM12.8 28.3l2.7 1.3L8.3 48l-2.7-1.3 7.2-18.4zm31.1 17.2s-.1.1-.1.2v.1c-.2.2-.3.5-.5.8L40 44.8c-1-.5-2.3-.4-3 .5-1.1 1.2-.7 3 .7 3.7l2.8 1.4c-.6.9-1.3 1.8-1.9 2.6L36 51.4c-.9-.6-2.2-.5-3 .2-1.2 1.1-.9 3 .4 3.8l2.3 1.4c-.7.9-1.2 1.6-1.6 2.1l-.1.2s-.1.1-.1.2c-.3.5-.9.9-1.6.6l-.4 1.4.4-1.4-19.6-9.7 7.5-19c1.5.3 3.2.5 4.9.8 2.4.3 6.3.9 7.4 1.5 1.5 2.6 3.2 3.7 3.4 3.8.1 0 .2.1.2.1l7.4 3.7c.6.3 1 .8 1.2 1.5.1 1-.2 2.1-.8 2.9zm-2.8-10.6l-2.5-1.6 4-6.9c.5-.8.6-1.8 0-2.6L30.4 5.2l27.1 6-16.4 23.7z"/></svg>