<svg xmlns="http://www.w3.org/2000/svg" viewBox="0 0 1024 1024"><path d="M512 0C229.2 0 0 229.2 0 512s229.2 512 512 512 512-229.2 512-512S794.8 0 512 0zm209.5 669.7c14.3 14.3 14.2 37.5-.1 51.7-6.9 6.8-16.1 10.7-25.8 10.7-9.4 0-18.8-3.6-25.9-10.7l-158.5-159L354 717.8c-6.8 6.8-16.1 10.6-25.7 10.6-9.8 0-19.1-3.9-26-10.9-14.2-14.4-14.1-37.5.3-51.7l157-155.3-155.7-156.2c-14.3-14.3-14.2-37.5.1-51.7 14.3-14.3 37.4-14.2 51.7.1l155.9 156.4L670 302.5c14.3-14.2 37.5-14.1 51.7.3 14.2 14.4 14.1 37.5-.3 51.7L563.3 510.9l158.2 158.8z"/></svg>