<svg xmlns="http://www.w3.org/2000/svg" viewBox="0 0 1536 1792"><path d="M1516 456c-13.3-32-29.3-57.3-48-76L1156 68c-18.7-18.7-44-34.7-76-48s-61.3-20-88-20H96C69.3 0 46.7 9.3 28 28S0 69.3 0 96v1600c0 26.7 9.3 49.3 28 68s41.3 28 68 28h1344c26.7 0 49.3-9.3 68-28s28-41.3 28-68V544c0-26.7-6.7-56-20-88zm-492-320c19.3 6.7 33 14 41 22l313 313c8 8 15.3 21.7 22 41h-376V136zm384 1528H128V128h768v416c0 26.7 9.3 49.3 28 68s41.3 28 68 28h416v1024z"/><path d="M995.1 736.9L631.8 848c-44 12.6-79.7 58.5-79.7 102.5v383.3s-26.3-17.8-85-9.5c-86.1 12.2-155.9 78.3-155.9 147.7s69.8 111.8 155.9 99.6c86.2-12.2 149.3-76.2 149.3-145.6v-327.2c0-30.7 37-43.9 37-43.9l321.3-100.7s35.5-11.9 35.5 21V1238s-32.7-18.8-91.4-11.7c-86.1 10.4-155.9 75.2-155.9 144.5 0 69.4 69.8 113.3 155.9 102.8 86.2-10.4 156-75.1 156-144.5V794c0-44.2-35.7-69.7-79.7-57.1z"/></svg>