<svg xmlns="http://www.w3.org/2000/svg" viewBox="0 0 1536 1792"><path d="M1516 456c-13.3-32-29.3-57.3-48-76L1156 68c-18.7-18.7-44-34.7-76-48s-61.3-20-88-20H96C69.3 0 46.7 9.3 28 28S0 69.3 0 96v1600c0 26.7 9.3 49.3 28 68s41.3 28 68 28h1344c26.7 0 49.3-9.3 68-28s28-41.3 28-68V544c0-26.7-6.7-56-20-88zm-492-320c19.3 6.7 33 14 41 22l313 313c8 8 15.3 21.7 22 41h-376V136zm384 1528H128V128h768v416c0 26.7 9.3 49.3 28 68s41.3 28 68 28h416v1024z"/><path d="M1129.8 760.6h-712c-68.1 0-123.4 55.2-123.4 123.4v489.6c-1.6 6.4-1.6 12.6 0 18.8v31.6c0 68.1 55.2 123.4 123.4 123.4h712.1c68.1 0 123.4-55.2 123.4-123.4V884c-.1-68.1-55.4-123.4-123.5-123.4zm-712 75.1h712.1c26.6 0 48.3 21.7 48.3 48.3v374.8c-27.9-37.8-61.7-69.7-96.8-102.5-20.9-19.6-46.9-27.6-75.4-23.6-44.8 6.4-93.9 34.3-149.9 104.3-13.4 16.6-25.5 33.3-35.4 47.5-49.3-68.1-146.4-184.5-228.8-242.5-24.4-17.2-51.8-21.2-79.7-12.1-30.3 9.9-59.8 26.3-89.8 69.2-17.4 24.7-35.1 55.2-53.1 91.2V884c.2-26.8 21.7-48.3 48.5-48.3z"/><path d="M925.6 964.9c0 36 29.2 65.3 65.3 65.3 36 0 65.3-29.2 65.3-65.3 0-36-29.2-65.3-65.3-65.3-36.1 0-65.3 29.2-65.3 65.3z"/></svg>