<svg xmlns="http://www.w3.org/2000/svg" viewBox="0 0 1536 1792"><path d="M1516 456c-13.3-32-29.3-57.3-48-76L1156 68c-18.7-18.7-44-34.7-76-48s-61.3-20-88-20H96C69.3 0 46.7 9.3 28 28S0 69.3 0 96v1600c0 26.7 9.3 49.3 28 68s41.3 28 68 28h1344c26.7 0 49.3-9.3 68-28s28-41.3 28-68V544c0-26.7-6.7-56-20-88zm-492-320c19.3 6.7 33 14 41 22l313 313c8 8 15.3 21.7 22 41h-376V136zm384 1528H128V128h768v416c0 26.7 9.3 49.3 28 68s41.3 28 68 28h416v1024z"/><path d="M1113.5 1419.3h-728c-54.6 0-91-32-91-80s36.4-80 91-80h728c54.6 0 91 32 91 80s-36.4 80-91 80zm0-362.7h-728c-54.6 0-91-32-91-80s36.4-80 91-80h728c54.6 0 91 32 91 80s-36.4 80-91 80zM569.9 693.9h-185c-55.5 0-92.5-32-92.5-80s37-80 92.5-80h185c55.5 0 92.5 32 92.5 80s-37 80-92.5 80z"/></svg>