<svg xmlns="http://www.w3.org/2000/svg" viewBox="0 0 1024 1024"><path d="M63.99 105.442V373.84c0 18.936 15.367 34.305 34.304 34.305 18.936 0 34.304-15.37 34.304-34.305V180.156l218.107 218.176c12.83 12.83 33.62 12.83 46.516 0 12.83-12.898 12.83-33.686 0-46.516L179.045 133.708h193.683c18.935 0 34.304-15.369 34.304-34.304 0-18.935-15.369-34.304-34.304-34.304H104.331C79.29 65.1 63.99 78 63.99 105.442zM917.689 65.1H649.29c-18.935 0-34.304 15.369-34.304 34.304 0 18.936 15.369 34.304 34.304 34.304h193.683L624.798 351.816c-12.83 12.829-12.83 33.618 0 46.516 12.898 12.83 33.686 12.83 46.515 0l218.108-218.176V373.84c0 18.936 15.369 34.305 34.304 34.305 18.936 0 34.304-15.37 34.304-34.305V105.442C958.03 78 942.8 65.1 917.69 65.1zM104.331 957.013H372.73c18.935 0 34.304-15.368 34.304-34.304s-15.369-34.304-34.304-34.304H179.046l218.176-218.108c12.83-12.829 12.83-33.618 0-46.515-12.898-12.83-33.686-12.83-46.516 0L132.6 841.958V648.275c0-18.936-15.368-34.305-34.304-34.305-18.937 0-34.305 15.37-34.305 34.305v268.398c0 27.443 15.299 40.34 40.341 40.34zm853.699-40.341V648.275c0-18.936-15.369-34.305-34.305-34.305-18.935 0-34.304 15.37-34.304 34.305v193.683L671.313 623.782c-12.829-12.83-33.618-12.83-46.515 0-12.83 12.898-12.83 33.686 0 46.515l218.176 218.108H649.291c-18.935 0-34.304 15.368-34.304 34.304s15.369 34.304 34.304 34.304h268.398c25.11 0 40.34-12.897 40.34-40.341z"/></svg>