<svg xmlns="http://www.w3.org/2000/svg" viewBox="0 0 1024 1024"><style/><path d="M433.7 645.9s17.6-1.4 23.9 9.9l55 101.4 53.2-98.7s3.2-10.1 22.7-12.6c0 0 229.4 28 309.5 202.5 78.5-90 126-207.6 126-336.3C1024 229.2 794.8 0 512 0S0 229.2 0 512c0 125.6 45.2 240.6 120.3 329.7C134.1 815.8 216 680 433.7 645.9zM512 149.6c99.1 0 179.8 80.7 179.8 179.8 0 96.5-75.5 239.6-179.8 239.6-104.3 0-179.8-143.1-179.8-239.6 0-99.2 80.6-179.8 179.8-179.8z"/><path d="M600.5 705.2l-68.3 125.4s-17.1 21-40.1 0l-67.6-125.8s-205.1 36.8-257.3 185.7c91 82.9 212 133.5 344.8 133.5 135.3 0 258.3-52.4 349.8-138.1-7.5-14.3-81.7-147.7-261.3-180.7z"/></svg>