<svg viewBox="0 0 1024 1024" xmlns="http://www.w3.org/2000/svg" width="200" height="200"><defs><style/></defs><path d="M864.383 548.781c-1.792 17.347 10.807 32.846 28.16 34.655 17.452 1.52 32.866-10.808 34.653-28.16 7.053-68.08-3.003-137.719-29.045-201.38C855.813 250.38 775.704 169.558 672.56 126.29c-103.165-43.27-216.98-43.745-320.439-1.421-103.514 42.342-184.336 122.447-227.606 225.596-43.25 103.125-43.764 216.942-1.42 320.436C165.436 774.417 245.54 855.244 348.69 898.508c52.15 21.876 107.013 32.808 161.894 32.808 53.686 0 107.383-10.463 158.563-31.387 16.135-6.618 23.863-25.034 17.263-41.193-6.597-16.09-24.951-23.903-41.193-17.265-87.914 35.97-184.564 35.52-272.11-1.192-87.583-36.732-155.621-105.368-191.555-193.28-35.971-87.897-35.54-184.527 1.193-272.116C219.477 287.3 288.112 219.262 376.03 183.328c87.892-35.97 184.54-35.52 272.11 1.194 87.584 36.731 155.628 105.366 191.557 193.284 22.136 54.077 30.669 113.196 24.687 170.975z"/><path d="M901.937 750.347l-72.833-2.782 2.78-72.818c.656-17.432-12.928-32.09-30.34-32.765-17.039-.74-32.086 12.928-32.765 30.336l-3.986 104.384c-.66 17.427 12.928 32.086 30.333 32.765l104.382 3.987c.41.018.824.018 1.233.018 16.876 0 30.876-13.36 31.537-30.36.656-17.428-12.935-32.086-30.341-32.765zM654.88 616.591H343.596c-11.674 0-20.532-8.226-20.532-17.656 0-9.378 8.858-17.662 20.532-17.662h64.478c10.01 0 18.12-8.106 18.12-18.116-.23-10.238-8.342-18.409-18.12-18.178h-64.478c-31.058 0-56.826 23.813-56.826 53.954 0 30.137 25.768 53.951 56.826 53.951h311.23c11.674 0 20.589 8.222 20.589 17.656 0 9.374-8.858 17.66-20.589 17.66H395.191c-9.779-.229-17.887 7.879-18.118 18.118 0 10.006 8.108 18.172 18.118 18.172h259.69c31.06 0 56.827-23.811 56.827-53.95 0-30.136-25.768-53.95-56.827-53.95z"/><path d="M533.52 569.771l2.244-2.244c33.879-43.596 99.85-134.647 99.85-183.652-.23-65.744-53.549-118.888-119.29-118.832-65.743-.172-119.003 53.088-119.177 118.832 0 48.775 65.914 140.056 99.85 183.652 9.491 10.701 25.824 11.678 36.523 2.244zm-83.976-185.55c0-17.716 7.018-34.685 19.559-47.165 12.536-12.481 29.505-19.5 47.22-19.44 36.352.632 65.512 30.311 65.512 66.72 0 36.35-29.16 66.03-65.511 66.662a66.739 66.739 0 01-47.221-19.554 66.737 66.737 0 01-19.559-47.224z"/></svg>