<svg xmlns="http://www.w3.org/2000/svg" viewBox="0 0 1024 1024"><path d="M388.5 355.9c0-65.2 55.4-118.2 123.4-118.2 68.1 0 123.5 53 123.5 118.2S580.1 474 512 474c-68.1 0-123.5-53-123.5-118.1zm305.3 0c0-95.9-81.6-174-181.9-174-100.2 0-181.8 78.1-181.8 174s81.6 174 181.8 174c100.4 0 181.9-78.1 181.9-174zM512 55.9c179.6 0 325.7 139.8 325.7 311.6 0 238.1-252.2 505.6-325.9 578.6-73.9-71.7-325.4-333.9-325.4-578.6C186.3 195.7 332.5 55.9 512 55.9zM492.1 1006l20.2 18 19.9-18.3C547 992.1 896 668.8 896 367.5 896 164.8 723.7 0 512 0S128 164.8 128 367.5c0 309.4 349.2 625.2 364.1 638.5z"/></svg>