<svg xmlns="http://www.w3.org/2000/svg" viewBox="0 0 1024 1024"><path d="M722.8 418.2h-23.4v-90.7c0-109-77.6-194.4-188.1-194.4-110.9 0-186.3 87.2-186.3 194.4v90.7h-23.4c-51.6 0-93.7 42.6-93.7 95v285c0 52.3 42.1 95 93.7 95H723c51.6 0 93.7-42.6 93.7-95v-285c-.3-52.5-42.2-95-93.9-95zm-351.1-90.7c0-81 54.6-146.9 139.5-146.9 84.1 0 141.3 64.6 141.3 146.9v90.7H371.7v-90.7zm397.9 470.6c0 26.2-21 47.5-46.8 47.5H301.6c-25.7 0-46.8-21.3-46.8-47.5v-285c0-26.2 21-47.5 46.8-47.5h421.3c25.7 0 46.8 21.3 46.8 47.5l-.1 285zM512.1 560.7c-25.9 0-46.8 21.3-46.8 47.5 0 17.6 9.4 32.9 23.4 41.2V727c0 13.1 10.4 23.7 23.4 23.7 12.9 0 23.4-10.6 23.4-23.7v-77.6c14-8.2 23.4-23.5 23.4-41.2.1-26.2-20.9-47.5-46.8-47.5z"/></svg>