<svg viewBox="0 0 1024 1024" xmlns="http://www.w3.org/2000/svg" width="200" height="200"><defs><style/></defs><path d="M245.55 581.514c-6.156-24.612-9.231-47.788-9.231-69.531v-78.777c0-10.663-3.9-19.892-11.69-27.69-7.797-7.794-17.024-11.69-27.69-11.69-10.674 0-19.905 3.899-27.698 11.69-7.796 7.796-11.695 17.027-11.695 27.69v78.77c0 45.54 8.619 89.433 25.849 131.704l62.155-62.166zM511.998 708.88c54.155 0 100.52-19.281 139.064-57.827 38.56-38.546 57.842-84.918 57.842-139.072V433.21l222.148-222.141c4.099-4.102 6.15-8.822 6.15-14.154 0-5.332-2.051-10.052-6.15-14.154l-50.45-50.463c-4.117-4.108-8.83-6.155-14.16-6.155-5.329 0-10.047 2.047-14.148 6.155L92.942 891.654c-4.102 4.1-6.147 8.822-6.147 14.146 0 5.34 2.045 10.06 6.147 14.16l50.458 50.46c4.104 4.101 8.826 6.144 14.154 6.144 5.335 0 10.055-2.04 14.154-6.144l156.303-156.303c45.117 27.91 93.323 44.52 144.607 49.847V945.2h-157.53c-10.668 0-19.905 3.903-27.69 11.7-7.798 7.786-11.704 17.022-11.704 27.689 0 10.65 3.906 19.9 11.704 27.69 7.785 7.789 17.022 11.698 27.69 11.698h393.816c10.665 0 19.898-3.907 27.69-11.699 7.802-7.787 11.699-17.038 11.699-27.69 0-10.664-3.897-19.9-11.7-27.689-7.789-7.796-17.022-11.699-27.689-11.699H551.378v-81.236c89.02-9.84 163.779-48.297 224.298-115.366 60.505-67.068 90.761-145.94 90.761-236.603v-78.786c0-10.663-3.897-19.892-11.684-27.685-7.804-7.796-17.031-11.695-27.698-11.695-10.658 0-19.892 3.899-27.69 11.695-7.795 7.793-11.69 17.022-11.69 27.685v78.77c0 75.898-26.983 140.814-80.922 194.754s-118.868 80.92-194.76 80.92c-44.307 0-86.353-10.452-126.149-31.385l59.074-59.058c22.167 7.792 44.522 11.671 67.08 11.671zM625.536 36.315C591.686 12.11 553.841 0 511.998 0c-54.153 0-100.514 19.292-139.07 57.849-38.56 38.559-57.839 84.918-57.839 139.072v315.06l382.133-382.136c-13.955-38.15-37.839-69.33-71.686-93.53z"/></svg>