<svg xmlns="http://www.w3.org/2000/svg" viewBox="0 0 1024 1024"><path d="M512 1024C229.7 1024 0 794.4 0 512.1 0 229.6 229.7 0 512 0s512 229.7 512 512.1c-.4 282.6-229.4 511.6-512 511.9zm0-950.6C269.9 73.7 73.8 269.9 73.5 512c0 241.7 196.7 438.5 438.5 438.5C754 950.2 950.2 754 950.5 512 950.3 269.9 754.1 73.7 512 73.4z"/><path d="M757.7 376.3c-14.3-14.2-37.4-14.2-51.6.1l-.1.1L439.4 646l-118-121.3c-14.7-13.9-37.8-13.3-51.8 1.3-13.2 13.9-13.5 35.5-.7 49.7l144.1 148c0 .1.1.1.3.3l.1.2c2.3 2.3 5.1 3.7 7.8 5.3 1.4.7 2.6 2 4 2.6 8.8 3.7 18.7 3.7 27.5.1 1.5-.6 2.5-1.7 3.9-2.5 2.8-1.5 5.6-2.9 7.9-5.1.1-.1.1-.3.2-.4l.3-.1L757.9 428c14.2-14.4 14.1-37.5-.2-51.7z"/></svg>