<svg xmlns="http://www.w3.org/2000/svg" viewBox="0 0 1536 1792"><path d="M1420.4 242.6c-3.4-3.4-5.6-4.6-11.4-4.6-1.9 0-3 .1-3.6.2l-.9.3-769.8 235.6c-4.1 1.5-6.8 3.5-9.5 7.2-2.7 3.6-3.2 5.7-3.2 8.7v322.1l804-256.6-1-301.5c0-5.8-1.2-8.1-4.6-11.4z"/><path d="M1420.4 242.6c-3.4-3.4-5.6-4.6-11.4-4.6-1.9 0-3 .1-3.6.2l-.9.3-769.8 235.6c-4.1 1.5-6.8 3.5-9.5 7.2-2.7 3.6-3.2 5.7-3.2 8.7v322.1l804-256.6-1-301.5c0-5.8-1.2-8.1-4.6-11.4z"/><ellipse cx="314.3" cy="1598" rx="216.3" ry="100.9"/><path d="M1508 156c-18.7-18.7-41.3-28-68-28-10.7 0-20 1.3-28 4L580 388c-20 6.7-36.3 18.5-49 35.5s-19 35.8-19 56.5l20 967c-58-26-142-39-212-39-30 0-62.2 3.5-96.5 10.5s-68.8 17.7-103.5 32-63.3 34.5-86 60.5c-22.7 26-34 55.7-34 89s11.3 63 34 89 51.3 46.2 86 60.5c34.7 14.3 69.2 25 103.5 32S290 1792 320 1792s62.2-3.5 96.5-10.5 68.8-17.7 103.5-32 53.3-34.5 76-60.5 44-55.7 44-89l-10-669 798-267v527c-58-26-142-39-212-39-30 0-62.2 3.5-96.5 10.5s-68.8 17.7-103.5 32-63.3 34.5-86 60.5c-22.7 26-34 55.7-34 89s11.3 63 34 89 51.3 46.2 86 60.5c34.7 14.3 69.2 25 103.5 32s66.5 10.5 96.5 10.5 62.2-3.5 96.5-10.5 68.8-17.7 103.5-32 63.3-34.5 86-60.5 34-55.7 34-89V224c0-26.7-9.3-49.3-28-68zM314.3 1698.9C194.8 1698.9 98 1653.7 98 1598s96.8-101 216.3-101 216.3 45.2 216.3 100.9-96.8 101-216.3 101zM622 812.1V490c0-3 .5-5.1 3.2-8.7 2.8-3.7 5.4-5.7 9.5-7.2l769.8-235.6.9-.3c.5-.1 1.7-.2 3.6-.2 5.8 0 8.1 1.2 11.4 4.6 3.4 3.4 4.6 5.6 4.6 11.4l1 301.5-804 256.6zm594.7 629.8c-119.5 0-216.3-45.2-216.3-100.9s96.8-100.9 216.3-100.9c119.5 0 216.3 45.2 216.3 100.9s-96.8 100.9-216.3 100.9z"/></svg>