<svg xmlns="http://www.w3.org/2000/svg" viewBox="0 0 1024 1024"><style></style><path d="M512 256c-20.1 0-36.3 17.4-36.3 38.9V729c0 21.5 16.3 38.9 36.3 38.9 20.1 0 36.3-17.4 36.3-38.9V294.9c0-21.5-16.2-38.9-36.3-38.9z"/><path d="M768 512c0-20.1-17.4-36.3-38.9-36.3H294.9c-21.5 0-38.9 16.3-38.9 36.3 0 20.1 17.4 36.3 38.9 36.3H729c21.6 0 39-16.2 39-36.3z"/><path d="M512 1024C229.7 1024 0 794.3 0 512S229.7 0 512 0s512 229.7 512 512-229.7 512-512 512zm0-965.2C262.1 58.8 58.8 262.1 58.8 512S262.1 965.2 512 965.2 965.2 761.9 965.2 512 761.9 58.8 512 58.8z"/></svg>