<svg xmlns="http://www.w3.org/2000/svg" viewBox="0 0 1024 1024"><path d="M1024 322.8l-29.1-215.1-134.7 170.2 63.8-8.4c-63.9 194.1-197.6 293.9-199.7 295.4-34.1 26.9-66.8 49.6-97.9 67.8 5.7-14.2 10.8-29 15.1-44.6 1.2-4.3 29-107.2-16.7-182.5-22.1-36.5-57.2-60-104.1-70-68.8-14.6-131.5 5.1-191.7 60.2-40.2 36.8-87.4 122.9-53.3 208.2 1.2 3.7 31.7 92.3 125.7 120.3 34.1 10.2 71.5 10.9 112.2 2.4C341 904.5 9 869.6 5 869.2L0 913c1.2.1 30.2 3.2 75.3 3.2 129.1 0 390.6-25.1 515.5-215.3 49.7-22 103.2-55.7 160.2-100.8 6.4-4.7 149.2-110.5 216.6-321.6l56.4 44.3zM599.1 576.3c-9.3 33.3-22.4 62.9-38.3 89.3-56 22.9-105.3 28.6-146.2 16.6-71.9-21.1-96-89.4-97.4-93.4-26.1-65.2 11.7-133 41.7-160.4C398.4 392.2 436 375 477.1 375c11.2 0 22.7 1.3 34.5 3.8 35 7.4 59.7 23.7 75.5 49.6 35.8 58.8 12.2 147.1 12 147.9z"/></svg>