<svg viewBox="0 0 1024 1024" xmlns="http://www.w3.org/2000/svg" width="200" height="200"><defs><style/></defs><path d="M856.845 756.314c-3.163 31.593-13.131 77.988-61.232 158.997H596.351c-21.696-36.284-93.02-141.068-200.061-155.479-16.099-2.168-38.523-13.113-38.523-20.914 0-8.92 15.103-17.45 21.98-19.972.337-.125 35.2-12.421 65.337-12.421 14.162 0 49.913 14.41 68.144 25.747l34.418 21.43.214-365.9c0-14.34 9.773-25.996 21.767-25.996h3.855c12.012 0 21.767 11.657 21.767 25.996v213.264h45.134V327.583c0-14.322 9.79-25.978 21.767-25.978h3.856c12.011 0 21.784 11.656 21.784 25.978v273.483h45.134v-185.42c0-14.322 9.755-25.978 21.784-25.978h3.839c11.994 0 21.767 11.656 21.767 25.978v185.42h45.133V476.754c0-12.954 7.552-22.62 14.286-22.62h3.199c6.734 0 14.268 9.666 14.268 22.62l-.355 279.56zm45.489-279.56c0-37.35-26.654-67.754-59.402-67.754h-3.199c-4.975 0-9.808.711-14.446 2.044-2.239-37.066-31.327-66.51-66.74-66.51h-3.838c-7.623 0-14.944 1.386-21.785 3.892v-20.843c0-39.199-30.03-71.094-66.918-71.094h-3.856c-34.685 0-63.293 28.217-66.563 64.2-6.93-2.577-14.357-3.999-22.104-3.999h-3.856c-36.87 0-66.883 31.896-66.883 71.112l-.089 288.853c-19.279-8.174-41.401-15.246-57.571-15.246-38.115 0-78.841 14.447-80.405 14.997-19.333 6.806-52.046 27.613-52.046 62.512 0 45.275 56.062 62.724 77.651 65.639 103.7 13.966 179.29 155.87 179.29 155.87h251.43s74.595-142.224 80.548-197.699c.942-3.767.782-285.974.782-285.974zM541.107 136.157c1.297 0 2.577-.106 3.839-.302V63.98a27.657 27.657 0 0 0-4.727-.41H328.892c-1.19 0-2.381.09-3.536.232v72.124c1.155.143 2.345.231 3.536.231h212.215m49.683 156.687c.941 0 1.848-.106 2.772-.213v-42.06a18.037 18.037 0 0 0-2.772-.212H278.34c-1.316 0-2.577.124-3.821.355v41.74c1.244.23 2.505.39 3.82.39h312.45m72.587-167.313c24.788 0 41.597 16.828 41.597 41.598v80.21h41.42l.195-79.322c0-47.798-29.212-84.083-83.212-84.083h-41.597a29.97 29.97 0 0 0-3.074.16v41.171c1.03.178 2.06.267 3.074.267h41.597M486.112 407.899V365.43H278.34c-1.315 0-2.576.142-3.82.355v41.757a20.78 20.78 0 0 0 3.82.356h207.773M163.25 646.02V167.146c0-24.787 16.827-41.597 41.597-41.597h52.224c.426 0 .835-.018 1.243-.053V83.987c-.408-.017-.817-.053-1.243-.053h-52.224c-58.406 0-83.194 36.302-83.194 84.1v473.563c0 51.334 30.971 87.619 87.619 87.619h65.78v-41.597h-59.579c-24.787 0-52.223-16.81-52.223-41.598m320.624-155.798H278.321c-1.297 0-2.576.142-3.82.373v41.74c1.244.23 2.523.372 3.82.372h206.672l-1.12-42.485"/></svg>