<svg xmlns="http://www.w3.org/2000/svg" viewBox="0 0 36 36"><path d="M35.4 13.4C34 8 30.2 3.9 25.5 1.7 21.7-.1 17.5-.5 13.4.6 3.8 3.1-1.9 13 .6 22.6 2.7 30.6 10 36 18 36c1.5 0 3-.2 4.6-.6 1-.3 2.1-.7 3-1.1 7.7-3.6 12.1-12.3 9.8-20.9zm-2.9 6.8c-.1.1-.1.3-.1.4-.7 4.2-3.3 7.8-6.8 9.9-1.2.7-2.5 1.3-3.9 1.6-7.8 2-15.8-2.6-17.8-10.4-2-7.8 2.6-15.8 10.4-17.8 3.8-1 7.7-.4 11.1 1.5.1 0 .1.1.2.1 3.3 2 5.6 5.1 6.5 8.8 0 .1.1.2.1.3.5 1.9.5 3.8.3 5.6z"/><path d="M26.3 16.3H14.9l4.8-4.8c.7-.7.7-1.7 0-2.4s-1.7-.7-2.4 0l-7.7 7.7c-.4.4-.6 1-.5 1.5.1.3.2.6.5.9l7.7 7.7c.3.3.8.5 1.2.5.4 0 .9-.2 1.2-.5.7-.7.7-1.7 0-2.4l-4.8-4.8h11.4c.9 0 1.7-.8 1.7-1.7s-.8-1.7-1.7-1.7z"/></svg>