<svg xmlns="http://www.w3.org/2000/svg" viewBox="0 0 1024 1024"><path d="M230.748 56.878h84.373v56.248h-84.373V56.878z"/><path d="M340.726 138.732H205.148V31.278h135.573v107.454zm-84.378-51.2h33.173v-5.049h-33.173v5.049zm311.9-30.654h84.373v56.248h-84.373V56.878z"/><path d="M678.226 138.732H542.653V31.278h135.573v107.454zm-84.378-51.2h33.173v-5.049h-33.173v5.049zm-363.1 53.724h84.373v56.248h-84.373v-56.248"/><path d="M340.726 223.104H205.148V115.656h135.573v107.448zm-84.378-51.2h33.173v-5.048h-33.173v5.048zm311.9-30.648h84.373v56.248h-84.373v-56.248z"/><path d="M678.226 223.104H542.653V115.656h135.573v107.448zm-84.378-51.2h33.173v-5.048h-33.173v5.048z"/><path d="M450.222 956.882H177.68c-63.759 0-115.676-51.922-115.676-115.707V228.838c0-63.815 51.922-115.706 115.676-115.706h495.478c63.79 0 115.681 51.89 115.681 115.706v158.623a14.085 14.085 0 01-14.064 14.065 14.08 14.08 0 01-14.06-14.065V228.838c.026-48.291-39.265-87.582-87.557-87.582H177.68c-48.291 0-87.552 39.29-87.552 87.582v612.337c0 48.317 39.26 87.578 87.552 87.578h272.512a14.065 14.065 0 0114.06 14.064 14.05 14.05 0 01-14.029 14.065z"/><path d="M450.222 982.482H177.68c-77.9 0-141.276-63.39-141.276-141.307V228.838c0-77.916 63.376-141.306 141.276-141.306h495.478c77.9 0 141.281 63.39 141.281 141.306v158.623c0 21.868-17.797 39.66-39.664 39.66s-39.66-17.792-39.66-39.66V228.838a61.491 61.491 0 00-18.166-43.801 61.532 61.532 0 00-43.79-18.181H177.678c-34.16 0-61.952 27.806-61.952 61.982v612.337c0 34.176 27.792 61.978 61.952 61.978H450.19c21.868 0 39.66 17.797 39.66 39.664s-17.782 39.665-39.629 39.665z"/><path d="M559.334 382.96H255.247a14.09 14.09 0 01-14.064-14.064 14.054 14.054 0 0114.064-14.065h304.087a14.05 14.05 0 0114.07 14.065 14.085 14.085 0 01-14.07 14.065z"/><path d="M559.334 408.56H255.247c-21.867 0-39.664-17.791-39.664-39.664s17.792-39.665 39.664-39.665h304.087c21.873 0 39.67 17.792 39.67 39.665s-17.792 39.665-39.67 39.665zM456.93 575.933H255.246a14.07 14.07 0 010-28.129H456.93a14.065 14.065 0 110 28.13z"/><path d="M456.93 601.533H255.246c-21.867 0-39.664-17.797-39.664-39.67 0-21.867 17.792-39.659 39.664-39.659H456.93c21.873 0 39.665 17.792 39.665 39.66 0 21.877-17.792 39.67-39.665 39.67zm281.773 355.349c-117.473 0-213.012-95.54-213.012-213.018 0-117.447 95.534-212.992 213.012-212.992s213.049 84.823 213.049 202.302c.005 117.478-95.565 223.708-213.049 223.708zm0-397.886c-101.95 0-184.883 82.914-184.883 184.863 0 101.955 82.934 184.894 184.883 184.894 101.986 0 184.925-82.94 184.925-184.894 0-101.95-82.94-184.863-184.925-184.863z"/><path d="M738.703 982.482c-131.573 0-238.612-107.044-238.612-238.618 0-131.558 107.033-238.592 238.612-238.592 133.822 0 238.649 100.107 238.649 227.902.005 135.137-109.287 249.308-238.649 249.308zm0-397.886c-87.833 0-159.288 71.445-159.288 159.263 0 87.834 71.455 159.294 159.288 159.294 87.85 0 159.325-71.46 159.325-159.294 0-87.818-71.47-159.263-159.325-159.263z"/><path d="M738.703 784.476c-22.354 0-40.55-18.196-40.55-40.617 0-22.359 18.196-40.555 40.55-40.555 22.42 0 40.643 18.196 40.643 40.555.005 22.42-18.222 40.617-40.643 40.617zm0-53.074a12.462 12.462 0 000 24.92 12.518 12.518 0 0012.519-12.488c.005-6.836-5.622-12.432-12.519-12.432z"/><path d="M738.703 810.076c-36.475 0-66.15-29.706-66.15-66.217 0-36.48 29.675-66.155 66.15-66.155 36.532 0 66.243 29.675 66.243 66.155.005 36.51-29.711 66.217-66.243 66.217zm0-79.355a13.107 13.107 0 00-13.081 13.113 13.138 13.138 0 0013.081 13.168 13.184 13.184 0 0013.169-13.168 13.148 13.148 0 00-13.169-13.113z"/><path d="M738.703 774.845a14.05 14.05 0 01-14.06-14.064V655.764a14.05 14.05 0 0114.06-14.064 14.05 14.05 0 0114.065 14.064v105.017a14.05 14.05 0 01-14.065 14.064z"/><path d="M738.703 800.445c-21.867 0-39.66-17.797-39.66-39.664V655.764c0-21.867 17.793-39.664 39.66-39.664s39.665 17.797 39.665 39.664v105.017c0 21.867-17.792 39.664-39.665 39.664z"/><path d="M824.018 757.924H718.97a14.054 14.054 0 01-14.065-14.065 14.08 14.08 0 0114.065-14.06h105.047a14.08 14.08 0 0114.065 14.06 14.029 14.029 0 01-14.065 14.065z"/><path d="M824.018 783.524H718.97c-21.868 0-39.665-17.797-39.665-39.665s17.797-39.66 39.665-39.66h105.047c21.867 0 39.665 17.793 39.665 39.66s-17.792 39.665-39.665 39.665z"/></svg>