<svg xmlns="http://www.w3.org/2000/svg" viewBox="0 0 1024 1024"><style/><path d="M840.7 134.9h-32.8c-1-36.8-31.2-66.2-68-66.1h-58.7v-1.6C681 29.9 650.5-.2 613.2 0h-199c-37.4-.2-67.8 29.9-68.1 67.3l-61.9 1.6c-36.9-.2-67.1 29.2-68.1 66h-32.8c-40.7 0-73.6 32.5-73.6 72.7v743.6c0 40.1 33 72.7 73.6 72.7h657.4c40.6 0 73.6-32.6 73.6-72.7V207.7c0-40.1-33-72.7-73.6-72.8zm-576.7.9c0-1.9 1.6-3.4 3.5-3.4h101.3c19.1.1 34.7-15.3 34.8-34.5v-36c0-1.8 1.6-3.4 3.5-3.4h213.5c2 0 3.5 1.6 3.5 3.4V98c0 19.1 15.6 34.5 34.9 34.5h97.8c1.9 0 3.4 1.4 3.4 3.3v85c0 1.9-1.6 3.4-3.4 3.4H267.5c-1.9 0-3.4-1.4-3.5-3.3v-85.1zm592 822.8c0 4.8-3.9 8.7-8.7 8.7H176.8c-4.8 0-8.8-3.8-8.8-8.7V200.4c0-4.8 4-8.7 8.8-8.7h33.3v16.6c0 37.9 31.2 68.6 69.5 68.6h464.7c38.1.2 69.2-30.5 69.5-68.6v-16.6h33.3c4.8 0 8.8 3.9 8.8 8.7l.1 758.2z"/><path d="M523.1 727.8H337.6c-17.9-.1-32.4 14.3-32.5 32.2 0 17.7 14.6 32.2 32.5 32.2h185.5c17.9.1 32.4-14.3 32.5-32.1v-.1c0-17.8-14.6-32.2-32.5-32.2.1 0 0 0 0 0zM692.8 554H337.7c-17.9-.1-32.4 14.3-32.5 32.2 0 17.7 14.6 32.1 32.5 32.1H693c17.9.1 32.4-14.3 32.5-32.2-.1-17.9-14.6-32.3-32.5-32.2l-.2.1zm0-167.6H337.7c-17.9-.1-32.4 14.3-32.5 32.2 0 17.7 14.6 32.1 32.5 32.1H693c17.9.1 32.4-14.3 32.5-32.2-.1-17.8-14.6-32.2-32.5-32.1h-.2z"/></svg>