<svg xmlns="http://www.w3.org/2000/svg" viewBox="0 0 1024 1024"><path d="M91.7 512.5v409c-.1 9.9 1.7 19.7 5.1 29 5.1 12.8 16.3 17.5 30.3 17.5h562.4c15 .2 27.1 12.2 27.5 27.2.1 15.4-12 28-27.3 28.8H125.3c-44.6.4-82.6-32.4-88.7-76.5-1.3-8.9-1.9-17.9-1.9-26.9v-817c0-29.5 6.6-56.5 28.2-78.3C78.4 9.1 100.1 0 122.6.4 361.3.4 600 1 838.8 0c49.4 0 89.7 39.4 90.9 88.7 1.3 38.9.4 77.8.4 116.7v242c0 16.3-8 27.7-21.1 30.7-14.8 4-30.1-4.8-34.1-19.7-.8-2.9-1.1-5.8-.9-8.8v-348c.1-8.5-1.4-17-4.2-25.1-4-12.8-16.4-21.2-29.8-20.2H125.6c-17.7-.4-32.4 13.3-33.3 31-.6 6.1-.8 12.1-.6 18.2v407z"/><path d="M896.3 747.5H535.9c-18.2-.8-28.3-10.4-28.2-26.6.1-16.2 10.7-26.2 28.6-26.3h362.6c-4.3-4.6-6.7-7.5-9.3-10.1-40.6-40.6-81.2-81.3-121.8-121.9-13.2-13.2-13-28.8 0-40 9.2-8.2 23-8.4 32.4-.5 3.3 2.7 6.3 5.8 9.3 8.8l167.3 167.3c16.8 16.9 16.9 28.6 0 45.4-57.2 57.3-114.4 114.5-171.6 171.6-16.9 17.2-39.3 12.3-45.8-9.1-3.7-11.9 2-20.6 10-28.6l119.4-119.4c2.8-2.8 6-5 9.1-7.5l-1.6-3.1zM482.3 221h252.9c18.5 0 30.5 7.5 35.9 21.4 6.5 16.6-1.7 35.3-18.2 41.8-.9.3-1.8.6-2.6.9-6.2 1.6-12.6 2.3-19 2.2H234.6c-5 .2-10-.1-14.9-.8-16.7-2.3-28.8-17-27.9-33.9.7-17.2 14.6-30.9 31.8-31.6h258.7zm-67.5 323.6H224.2c-17.9-.1-32.3-14.6-32.2-32.5.1-16.4 12.3-30.1 28.6-32h381.1c22.4 0 36.4 11.9 36.9 31.3 1 17.4-12.4 32.3-29.8 33.2-.8 0-1.6.1-2.4 0H414.8zM273.4 737.2h46c18.2-.2 33.1 14.4 33.3 32.5.2 18.2-14.4 33.1-32.5 33.3-31.7.5-63.4.5-95 0-18.2-.4-32.6-15.4-32.2-33.6.4-18.2 15.4-32.6 33.6-32.2 15.6-.1 31.3 0 46.8 0z"/></svg>