<svg xmlns="http://www.w3.org/2000/svg" viewBox="0 0 1024 1024"><path d="M880.286 959.98c-12.09 0-21.877-9.787-21.877-21.856 0-93.327-36.333-181.005-102.306-246.977-8.528-8.572-8.528-22.41 0-30.918 8.508-8.53 22.346-8.53 30.876 0 74.244 74.245 115.12 172.925 115.12 277.895 0 12.069-9.745 21.856-21.813 21.856zM509.03 588.767c-93.307.043-181.006 36.366-246.945 102.381-66.036 65.972-102.337 153.649-102.337 246.977 0 12.069-9.776 21.856-21.845 21.856-12.079 0-21.823-9.787-21.823-21.856 0-104.97 40.886-203.65 115.13-277.851 74.16-74.213 172.861-115.142 277.82-115.142 12.07 0 21.856 9.744 21.856 21.813 0 12.047-9.787 21.822-21.856 21.822zm.033.384c-144.47 0-262-117.539-262-262.01s117.53-261.998 262-261.998c144.523 0 262.052 117.528 262.052 261.999s-117.529 262.01-262.052 262.01zm0-480.34c-120.355 0-218.331 97.934-218.331 218.33 0 120.408 97.976 218.33 218.33 218.33 120.409 0 218.384-97.923 218.384-218.33 0-120.396-97.975-218.33-218.383-218.33z"/></svg>