<svg xmlns="http://www.w3.org/2000/svg" viewBox="0 0 1024 1024"><path d="M512 688.2c-96.4 0-175.6-79.5-175.6-176.2 0-96.1 79.2-175.6 175.6-175.6 96.9 0 175 79.5 175 175.6 0 96.7-78.1 176.2-175 176.2zm0-300.6c-67.7 0-124.6 56.5-124.6 124.4 0 68.5 56.9 125 124.6 125s124-56.5 124-125c0-67.9-56.3-124.4-124-124.4zm0 432.4C241.7 820 0 583.4 0 512s241.6-308 512-308c282.4 0 512 248.7 512 308 0 61.1-229.6 308-512 308zm0-564.8c-261.1 0-455.7 223.4-460.8 257.4 5.1 34 199.7 256.2 460.8 256.2 252.6 0 448.9-218.8 460.3-256.8-11.4-38-207.7-256.8-460.3-256.8z"/></svg>