<svg xmlns="http://www.w3.org/2000/svg" viewBox="0 0 1024 1024"><path d="M969 686.7c-17.3 0-31.3-14-31.5-31.3v-.1l1.3-484.9c0-22.9-8.8-44.3-25-60.5-16-16.1-37.8-25.1-60.5-25h-683c-47 .1-85.3 38.4-85.3 85.6v683c-.1 47.2 38.1 85.5 85.2 85.6h485.2c17.4 0 31.5 14.1 31.5 31.5s-14.1 31.5-31.5 31.5h-485C88.5 1002.1 22 935.7 22 853.8V170.6C22 88.6 88.3 22.1 170.2 22h683.3c81.9-.2 148.4 66.1 148.5 148v.6l-1.3 485c-.3 17.3-14.4 31.2-31.7 31.1zM211.1 242.4l602 .2c17.4 0 31.6 14.1 31.6 31.6 0 17.4-14.1 31.6-31.6 31.6l-602-.2c-17.4 0-31.6-14.1-31.6-31.6.1-17.4 14.2-31.6 31.6-31.6zm-31.4 269.7c0-17.4 14.1-31.5 31.5-31.5h287c17.4 0 31.5 14.1 31.5 31.5s-14.1 31.5-31.5 31.5l-287-.1c-17.4.1-31.5-14-31.5-31.4zm255.4 269.3l-224-.1c-17.4 0-31.4-14.1-31.4-31.4 0-17.4 14.1-31.4 31.4-31.4l224 .1c17.4 0 31.4 14.1 31.4 31.4s-14 31.4-31.4 31.4zm149.5-196.8c73.8-74 193.5-74.2 267.6-.5 65.6 65.4 74.2 168.6 20.4 243.9l120.2 120.2c11.6 13 10.4 32.9-2.6 44.5-11.9 10.6-29.9 10.6-41.9 0L828.1 872.6c-85.2 60.5-203.3 40.6-263.9-44.6-53.4-75.3-44.8-178.1 20.4-243.4zM595 743.1c11.7 59 63.4 101.5 123.6 101.5 69.6 0 126.1-56.4 126.1-126s-56.4-126.1-126-126.1-126.1 56.4-126.1 126c0 8.3.8 16.5 2.4 24.6z"/></svg>